<?xml version="1.0" encoding="UTF-8"?>
<svg version="1.1" xmlns="http://www.w3.org/2000/svg" width="200" height="200">
<path d="M0 0 C66 0 132 0 200 0 C200 66 200 132 200 200 C134 200 68 200 0 200 C0 134 0 68 0 0 Z " fill="#272727" transform="translate(0,0)"/>
<path d="M0 0 C2.866875 -0.12375 5.73375 -0.2475 8.6875 -0.375 C10.02880981 -0.45693604 10.02880981 -0.45693604 11.3972168 -0.54052734 C17.20944023 -0.66176471 17.20944023 -0.66176471 19.62744141 1.36230469 C20.8218819 2.85458767 21.91834424 4.42405031 23 6 C23.66 6 24.32 6 25 6 C24.67 4.02 24.34 2.04 24 0 C28.62 0 33.24 0 38 0 C38 0.99 38 1.98 38 3 C36.35 3 34.7 3 33 3 C33 10.92 33 18.84 33 27 C34.65 27 36.3 27 38 27 C38 27.99 38 28.98 38 30 C34.72963272 30.14510162 31.46008993 30.23399373 28.1875 30.3125 C27.25873047 30.35439453 26.32996094 30.39628906 25.37304688 30.43945312 C22.82690819 30.48541231 20.50330604 30.47226723 18 30 C16.07421875 27.71484375 16.07421875 27.71484375 15 25 C13.38917003 23.00643664 13.38917003 23.00643664 11.625 21.25 C10.77808594 20.36054688 10.77808594 20.36054688 9.9140625 19.453125 C7.71587586 17.56467836 7.71587586 17.56467836 3 17 C3 21.29 3 25.58 3 30 C2.01 30 1.02 30 0 30 C0 20.1 0 10.2 0 0 Z " fill="#F4F4F4" transform="translate(83,128)"/>
<path d="M0 0 C1.98 0 3.96 0 6 0 C6 46.2 6 92.4 6 140 C4.02 140 2.04 140 0 140 C0 93.8 0 47.6 0 0 Z " fill="#FCFCFC" transform="translate(159,30)"/>
<path d="M0 0 C3.073125 -0.061875 6.14625 -0.12375 9.3125 -0.1875 C10.27712158 -0.21481201 11.24174316 -0.24212402 12.2355957 -0.27026367 C13.38161255 -0.28150269 13.38161255 -0.28150269 14.55078125 -0.29296875 C15.72120972 -0.31653442 15.72120972 -0.31653442 16.9152832 -0.34057617 C19.54569316 0.08914884 20.41150904 0.89462409 22 3 C22.29296875 5.59375 22.29296875 5.59375 22.1875 8.5 C22.16042969 9.4590625 22.13335937 10.418125 22.10546875 11.40625 C22.07066406 12.2621875 22.03585938 13.118125 22 14 C22 15.78056504 22.03380549 17.56248575 22.140625 19.33984375 C22.19476563 20.62568359 22.19476563 20.62568359 22.25 21.9375 C22.29640625 22.79214844 22.3428125 23.64679688 22.390625 24.52734375 C22 27 22 27 20.5625 29.30078125 C16.71798667 31.85011555 13.2453757 31.43122635 8.75 31.25 C5.8625 31.1675 2.975 31.085 0 31 C0 20.77 0 10.54 0 0 Z " fill="#F6F6F6" transform="translate(32,42)"/>
<path d="M0 0 C1.97806641 -0.02900391 1.97806641 -0.02900391 3.99609375 -0.05859375 C7.5625 0.4375 7.5625 0.4375 10.00390625 1.77734375 C12.54617662 6.11640672 12.13894172 10.50700935 12.0625 15.4375 C12.07796875 16.43523437 12.0934375 17.43296875 12.109375 18.4609375 C12.07126119 25.56916323 12.07126119 25.56916323 10.00390625 29.09765625 C6.57169519 30.98125368 3.89579965 30.93212316 0 30.875 C-0.67224609 30.88208984 -1.34449219 30.88917969 -2.03710938 30.89648438 C-6.8731273 30.83405316 -6.8731273 30.83405316 -9.12719727 29.25024414 C-10.9237169 26.76484107 -10.82530686 25.04947628 -10.8359375 22 C-10.83980469 20.94039062 -10.84367187 19.88078125 -10.84765625 18.7890625 C-10.83605469 17.68304688 -10.82445313 16.57703125 -10.8125 15.4375 C-10.82410156 14.33148438 -10.83570312 13.22546875 -10.84765625 12.0859375 C-10.84378906 11.02632812 -10.83992188 9.96671875 -10.8359375 8.875 C-10.83255371 7.90433594 -10.82916992 6.93367187 -10.82568359 5.93359375 C-10.4375 3.4375 -10.4375 3.4375 -9.12719727 1.62475586 C-6.34165311 -0.33249038 -3.27741955 -0.03456531 0 0 Z " fill="#2A2A2A" transform="translate(135.4375,127.5625)"/>
<path d="M0 0 C1.97806641 -0.02900391 1.97806641 -0.02900391 3.99609375 -0.05859375 C7.5625 0.4375 7.5625 0.4375 10.00390625 2.02734375 C12.10896167 5.2825297 12.09516797 7.58267967 12.0625 11.4375 C12.0728125 12.654375 12.083125 13.87125 12.09375 15.125 C11.5625 18.4375 11.5625 18.4375 9.96875 20.84375 C6.71781659 22.99696564 4.4382432 22.97034528 0.5625 22.9375 C-1.2628125 22.95296875 -1.2628125 22.95296875 -3.125 22.96875 C-6.4375 22.4375 -6.4375 22.4375 -8.84765625 20.87890625 C-11.07175887 17.46351525 -10.93430412 14.91954107 -10.875 10.875 C-10.88208984 10.20275391 -10.88917969 9.53050781 -10.89648438 8.83789062 C-10.86117207 6.10254549 -10.70257551 3.92087299 -9.375 1.5 C-6.36054135 -0.15309023 -3.34813564 -0.03531111 0 0 Z " fill="#F6F6F6" transform="translate(88.4375,50.5625)"/>
<path d="M0 0 C2.91765891 -0.10806144 5.83131125 -0.18732877 8.75 -0.25 C9.9875 -0.30027344 9.9875 -0.30027344 11.25 -0.3515625 C14.94292612 -0.41112582 17.31599257 -0.39205304 20.5625 1.46875 C22.69043522 5.21576637 22.43224542 8.52330815 22.25 12.75 C22.23195313 13.54277344 22.21390625 14.33554688 22.1953125 15.15234375 C22.14833082 17.10208348 22.07659044 19.05119878 22 21 C18.91698584 21.11644156 15.83453877 21.18732432 12.75 21.25 C11.44095703 21.30027344 11.44095703 21.30027344 10.10546875 21.3515625 C3.62465156 21.45050627 3.62465156 21.45050627 0.421875 19.140625 C-1.36917109 16.44421496 -1.63498859 15.17494297 -1 12 C0.609375 9.859375 0.609375 9.859375 3 8 C6.234375 7.609375 6.234375 7.609375 9.75 7.75 C10.92046875 7.78609375 12.0909375 7.8221875 13.296875 7.859375 C14.18890625 7.90578125 15.0809375 7.9521875 16 8 C16 7.34 16 6.68 16 6 C10.72 6 5.44 6 0 6 C0 4.02 0 2.04 0 0 Z " fill="#F5F5F5" transform="translate(81,94)"/>
<path d="M0 0 C4.62 0 9.24 0 14 0 C14 0.99 14 1.98 14 3 C12.35 3 10.7 3 9 3 C9 10.92 9 18.84 9 27 C10.65 27 12.3 27 14 27 C14 27.99 14 28.98 14 30 C8.39 30 2.78 30 -3 30 C-3.66 28.02 -4.32 26.04 -5 24 C-6.44544225 21.87735672 -6.44544225 21.87735672 -8.125 20.125 C-8.66382812 19.52945313 -9.20265625 18.93390625 -9.7578125 18.3203125 C-10.16773437 17.88460937 -10.57765625 17.44890625 -11 17 C-10.21625 16.71125 -9.4325 16.4225 -8.625 16.125 C-5.90328368 15.15087746 -5.90328368 15.15087746 -4 13 C-3.53993654 10.79749008 -3.53993654 10.79749008 -3.375 8.375 C-3.26285156 7.14910156 -3.26285156 7.14910156 -3.1484375 5.8984375 C-3.09945312 5.27195313 -3.05046875 4.64546875 -3 4 C-1.68 4.66 -0.36 5.32 1 6 C0.67 4.02 0.34 2.04 0 0 Z " fill="#2E2E2E" transform="translate(107,128)"/>
<path d="M0 0 C2.31 0 4.62 0 7 0 C7.33 4.29 7.66 8.58 8 13 C9.32 11.68 10.64 10.36 12 9 C15.75 8.75 15.75 8.75 19 9 C19 10.98 19 12.96 19 15 C18.21625 15.268125 17.4325 15.53625 16.625 15.8125 C13.71885077 16.84814432 13.71885077 16.84814432 12 20 C14.17424117 22.50037734 15.73045798 23.43628586 19 24 C19 26.31 19 28.62 19 31 C16.3125 31.3125 16.3125 31.3125 13 31 C10.125 28.5 10.125 28.5 8 26 C7.67 27.65 7.34 29.3 7 31 C4.69 31 2.38 31 0 31 C0 20.77 0 10.54 0 0 Z " fill="#E8E8E8" transform="translate(128,42)"/>
<path d="M0 0 C1.98 0 3.96 0 6 0 C6 2.97 6 5.94 6 9 C7.33804688 8.93039063 7.33804688 8.93039063 8.703125 8.859375 C9.87359375 8.82328125 11.0440625 8.7871875 12.25 8.75 C13.99023438 8.68039063 13.99023438 8.68039063 15.765625 8.609375 C19 9 19 9 21.40625 10.4375 C23.80707079 14.29764323 23.43058637 17.804797 23.25 22.25 C23.23195313 23.09046875 23.21390625 23.9309375 23.1953125 24.796875 C23.14830798 26.86507395 23.07656724 28.93268441 23 31 C21.02 31 19.04 31 17 31 C16.67 25.72 16.34 20.44 16 15 C12.7 14.67 9.4 14.34 6 14 C6 19.61 6 25.22 6 31 C4.02 31 2.04 31 0 31 C0 20.77 0 10.54 0 0 Z " fill="#F4F4F4" transform="translate(55,85)"/>
<path d="M0 0 C3.0525 -0.0825 6.105 -0.165 9.25 -0.25 C10.20551758 -0.28641602 11.16103516 -0.32283203 12.14550781 -0.36035156 C15.83874651 -0.40880285 18.32292015 -0.37524907 21.59375 1.4375 C23.72894656 5.32830262 23.42699129 8.89329133 23.25 13.25 C23.23195312 14.09046875 23.21390625 14.9309375 23.1953125 15.796875 C23.14830798 17.86507395 23.07656724 19.93268441 23 22 C20.69 22 18.38 22 16 22 C16 16.72 16 11.44 16 6 C12.7 6 9.4 6 6 6 C6 10.95 6 15.9 6 21 C4.02 21 2.04 21 0 21 C0 14.07 0 7.14 0 0 Z " fill="#EFEFEF" transform="translate(124,94)"/>
<path d="M0 0 C3.96 0 7.92 0 12 0 C12 7.92 12 15.84 12 24 C13.65 24 15.3 24 17 24 C17 26.31 17 28.62 17 31 C11.39 31 5.78 31 0 31 C0 29.02 0 27.04 0 25 C1.65 25 3.3 25 5 25 C5 18.73 5 12.46 5 6 C3.35 6 1.7 6 0 6 C0 4.02 0 2.04 0 0 Z " fill="#E8E8E8" transform="translate(58,42)"/>
<path d="M0 0 C0.75732422 0.00966797 1.51464844 0.01933594 2.29492188 0.02929688 C3.08060547 0.05443359 3.86628906 0.07957031 4.67578125 0.10546875 C5.87170898 0.12577148 5.87170898 0.12577148 7.09179688 0.14648438 C9.05758092 0.18179786 11.02301707 0.23560428 12.98828125 0.29296875 C12.98828125 2.27296875 12.98828125 4.25296875 12.98828125 6.29296875 C8.36828125 6.29296875 3.74828125 6.29296875 -1.01171875 6.29296875 C-1.01171875 9.26296875 -1.01171875 12.23296875 -1.01171875 15.29296875 C3.60828125 15.29296875 8.22828125 15.29296875 12.98828125 15.29296875 C12.98828125 17.60296875 12.98828125 19.91296875 12.98828125 22.29296875 C10.40382352 22.40115535 7.82390773 22.48034112 5.23828125 22.54296875 C4.50867187 22.57648438 3.7790625 22.61 3.02734375 22.64453125 C-0.3557902 22.70604278 -2.59693606 22.55017308 -5.5 20.75 C-7.61139649 17.31829873 -7.50791177 14.73333246 -7.44921875 10.73046875 C-7.45630859 10.05822266 -7.46339844 9.38597656 -7.47070312 8.69335938 C-7.40778126 3.81933492 -7.40778126 3.81933492 -5.73535156 1.59667969 C-3.63425428 0.00746446 -2.60742344 -0.05881406 0 0 Z " fill="#EDEDED" transform="translate(39.01171875,93.70703125)"/>
<path d="M0 0 C1.18916016 0.02707031 1.18916016 0.02707031 2.40234375 0.0546875 C4.35208348 0.10166918 6.30119878 0.17340956 8.25 0.25 C8.25 2.23 8.25 4.21 8.25 6.25 C3.3 6.25 -1.65 6.25 -6.75 6.25 C-6.42 9.22 -6.09 12.19 -5.75 15.25 C1.18 15.745 1.18 15.745 8.25 16.25 C8.25 18.23 8.25 20.21 8.25 22.25 C5.49894578 22.35812003 2.75214913 22.43734945 0 22.5 C-1.16595703 22.55027344 -1.16595703 22.55027344 -2.35546875 22.6015625 C-6.00261334 22.66390685 -8.12347278 22.64303881 -11.265625 20.671875 C-13.26718404 17.40617342 -13.28231012 15.06259386 -13.25 11.25 C-13.2603125 10.033125 -13.270625 8.81625 -13.28125 7.5625 C-12.75 4.25 -12.75 4.25 -11.265625 1.828125 C-7.54928533 -0.50324337 -4.2892896 -0.18494449 0 0 Z " fill="#F0F0F0" transform="translate(116.75,50.75)"/>
<path d="M0 0 C1.97806641 -0.02900391 1.97806641 -0.02900391 3.99609375 -0.05859375 C7.5625 0.4375 7.5625 0.4375 10.00390625 1.77734375 C12.54617662 6.11640672 12.13894172 10.50700935 12.0625 15.4375 C12.07796875 16.43523437 12.0934375 17.43296875 12.109375 18.4609375 C12.07126119 25.56916323 12.07126119 25.56916323 10.00390625 29.09765625 C6.57169519 30.98125368 3.89579965 30.93212316 0 30.875 C-0.67224609 30.88208984 -1.34449219 30.88917969 -2.03710938 30.89648438 C-6.8731273 30.83405316 -6.8731273 30.83405316 -9.12719727 29.25024414 C-10.9237169 26.76484107 -10.82530686 25.04947628 -10.8359375 22 C-10.83980469 20.94039062 -10.84367187 19.88078125 -10.84765625 18.7890625 C-10.83605469 17.68304688 -10.82445313 16.57703125 -10.8125 15.4375 C-10.82410156 14.33148438 -10.83570312 13.22546875 -10.84765625 12.0859375 C-10.84378906 11.02632812 -10.83992188 9.96671875 -10.8359375 8.875 C-10.83255371 7.90433594 -10.82916992 6.93367187 -10.82568359 5.93359375 C-10.4375 3.4375 -10.4375 3.4375 -9.12719727 1.62475586 C-6.34165311 -0.33249038 -3.27741955 -0.03456531 0 0 Z M-7.4375 5.4375 C-7.74734531 7.53563381 -7.74734531 7.53563381 -7.703125 9.9375 C-7.70570312 10.824375 -7.70828125 11.71125 -7.7109375 12.625 C-7.70320313 13.553125 -7.69546875 14.48125 -7.6875 15.4375 C-7.69523437 16.365625 -7.70296875 17.29375 -7.7109375 18.25 C-7.70835938 19.136875 -7.70578125 20.02375 -7.703125 20.9375 C-7.70086914 21.7521875 -7.69861328 22.566875 -7.69628906 23.40625 C-7.61924293 25.66380451 -7.61924293 25.66380451 -5.4375 27.4375 C-2.83833917 27.75699731 -2.83833917 27.75699731 0.0625 27.6875 C1.0421875 27.69265625 2.021875 27.6978125 3.03125 27.703125 C5.73138152 27.68825045 5.73138152 27.68825045 7.5625 25.4375 C7.87234531 23.33936619 7.87234531 23.33936619 7.828125 20.9375 C7.83070313 20.050625 7.83328125 19.16375 7.8359375 18.25 C7.82820313 17.321875 7.82046875 16.39375 7.8125 15.4375 C7.82410156 14.0453125 7.82410156 14.0453125 7.8359375 12.625 C7.83335937 11.738125 7.83078125 10.85125 7.828125 9.9375 C7.82586914 9.1228125 7.82361328 8.308125 7.82128906 7.46875 C7.74424293 5.21119549 7.74424293 5.21119549 5.5625 3.4375 C2.96333917 3.11800269 2.96333917 3.11800269 0.0625 3.1875 C-0.9171875 3.18234375 -1.896875 3.1771875 -2.90625 3.171875 C-5.60638152 3.18674955 -5.60638152 3.18674955 -7.4375 5.4375 Z " fill="#F1F1F1" transform="translate(135.4375,127.5625)"/>
<path d="M0 0 C3.63 0 7.26 0 11 0 C11 5.28 11 10.56 11 16 C12.65 16 14.3 16 16 16 C16 17.65 16 19.3 16 21 C10.72 21 5.44 21 0 21 C0 19.02 0 17.04 0 15 C1.65 15 3.3 15 5 15 C5 12.03 5 9.06 5 6 C3.35 6 1.7 6 0 6 C0 4.02 0 2.04 0 0 Z " fill="#F9F9F9" transform="translate(105,94)"/>
<path d="M0 0 C4.62 0 9.24 0 14 0 C14 0.99 14 1.98 14 3 C12.35 3 10.7 3 9 3 C9 10.92 9 18.84 9 27 C10.65 27 12.3 27 14 27 C14 27.99 14 28.98 14 30 C9.38 30 4.76 30 0 30 C0 29.01 0 28.02 0 27 C1.65 27 3.3 27 5 27 C5 19.08 5 11.16 5 3 C3.35 3 1.7 3 0 3 C0 2.01 0 1.02 0 0 Z " fill="#ECECEC" transform="translate(107,128)"/>
<path d="M0 0 C2.12472576 -0.05386629 4.24983652 -0.09273071 6.375 -0.125 C7.55835937 -0.14820313 8.74171875 -0.17140625 9.9609375 -0.1953125 C13 0 13 0 15 2 C15.25 5 15.25 5 15 8 C13 10 13 10 9.9609375 10.1953125 C8.77757813 10.17210937 7.59421875 10.14890625 6.375 10.125 C5.18648438 10.10695312 3.99796875 10.08890625 2.7734375 10.0703125 C1.85820313 10.04710937 0.94296875 10.02390625 0 10 C0 6.7 0 3.4 0 0 Z " fill="#272727" transform="translate(86,131)"/>
<path d="M0 0 C3.3 0 6.6 0 10 0 C10.09765625 6.93359375 10.09765625 6.93359375 10 9 C9 10 9 10 6.93359375 10.09765625 C3.46679688 10.04882812 3.46679688 10.04882812 0 10 C0 6.7 0 3.4 0 0 Z " fill="#292929" transform="translate(84,57)"/>
<path d="M0 0 C3.3 0 6.6 0 10 0 C10 2.31 10 4.62 10 7 C6.7 7 3.4 7 0 7 C0 4.69 0 2.38 0 0 Z " fill="#393939" transform="translate(38,60)"/>
<path d="M0 0 C3.3 0 6.6 0 10 0 C10 1.98 10 3.96 10 6 C6.7 6 3.4 6 0 6 C0 4.02 0 2.04 0 0 Z " fill="#2A2A2A" transform="translate(38,48)"/>
<path d="M0 0 C2.31 0 4.62 0 7 0 C7 2.31 7 4.62 7 7 C4.69 7 2.38 7 0 7 C0 4.69 0 2.38 0 0 Z " fill="#CACACA" transform="translate(71,152)"/>
<path d="M0 0 C1.98 0 3.96 0 6 0 C6 1.98 6 3.96 6 6 C4.02 6 2.04 6 0 6 C0 4.02 0 2.04 0 0 Z " fill="#F3F3F3" transform="translate(110,85)"/>
<path d="M0 0 C3.3 0 6.6 0 10 0 C10 0.99 10 1.98 10 3 C6.7 3 3.4 3 0 3 C0 2.01 0 1.02 0 0 Z " fill="#585858" transform="translate(87,107)"/>
<path d="M0 0 C0 1.65 0 3.3 0 5 C-0.66 4.34 -1.32 3.68 -2 3 C-2.33 6.3 -2.66 9.6 -3 13 C-3.33 13 -3.66 13 -4 13 C-4.06058594 12.31292969 -4.12117188 11.62585937 -4.18359375 10.91796875 C-4.26738281 10.01691406 -4.35117187 9.11585937 -4.4375 8.1875 C-4.51871094 7.29417969 -4.59992187 6.40085937 -4.68359375 5.48046875 C-4.93489767 2.87256441 -4.93489767 2.87256441 -6 0 C-3 -1 -3 -1 0 0 Z " fill="#464646" transform="translate(58,42)"/>
<path d="M0 0 C2.12472576 -0.05386629 4.24983652 -0.09273071 6.375 -0.125 C7.55835937 -0.14820313 8.74171875 -0.17140625 9.9609375 -0.1953125 C13 0 13 0 15 2 C15.125 5.125 15.125 5.125 15 8 C14.731875 7.38125 14.46375 6.7625 14.1875 6.125 C13.04443152 3.7004767 13.04443152 3.7004767 10 2 C7.49103314 1.54398739 7.49103314 1.54398739 4.8125 1.375 C3.91144531 1.30023438 3.01039062 1.22546875 2.08203125 1.1484375 C1.39496094 1.09945312 0.70789063 1.05046875 0 1 C0 0.67 0 0.34 0 0 Z " fill="#363636" transform="translate(86,131)"/>
<path d="M0 0 C0.33 0 0.66 0 1 0 C1 1.98 1 3.96 1 6 C-1.97 6 -4.94 6 -8 6 C-8 5.67 -8 5.34 -8 5 C-6.8553125 4.87625 -6.8553125 4.87625 -5.6875 4.75 C-2.46048 3.84943628 -1.77264299 2.74759664 0 0 Z " fill="#4B4B4B" transform="translate(92,61)"/>
<path d="M0 0 C0.33 0 0.66 0 1 0 C1.25 5.625 1.25 5.625 -1 9 C-1.66 8.67 -2.32 8.34 -3 8 C-2.67 6.02 -2.34 4.04 -2 2 C-1.34 2 -0.68 2 0 2 C0 1.34 0 0.68 0 0 Z " fill="#353535" transform="translate(54,92)"/>
</svg>
